<svg xmlns="http://www.w3.org/2000/svg" width="51.58" height="51.58" viewBox="0 0 51.58 51.58">
  <g id="applicable" transform="translate(-66.71 -1679.71)">
    <circle id="Ellipse_1" data-name="Ellipse 1" cx="25.79" cy="25.79" r="25.79" transform="translate(66.71 1679.71)" fill="#1a98f8"/>
    <g id="Vector_Smart_Object" data-name="Vector Smart Object" transform="translate(0 7)">
      <g id="Vector_Smart_Object-2" data-name="Vector Smart Object" transform="translate(-300.38 1018.685)">
        <g id="Group_29" data-name="Group 29">
          <path id="Path_85" data-name="Path 85" d="M405.96,669.738a.5.5,0,0,0-.092-.137l-.03-.031a.81.81,0,0,0-1.364.346,1.321,1.321,0,0,1-.39.636,1.4,1.4,0,0,1-1.39.285,1.5,1.5,0,0,1-.973-1.26.269.269,0,0,1,0-.1,1.477,1.477,0,0,1,1.171-1.218.8.8,0,0,0,.624-.526.756.756,0,0,0-.174-.766l-1.949-2.033a.815.815,0,0,0-.4-.227.551.551,0,0,0-.124-.011.815.815,0,0,0-.522.2l-1.857,1.647a2.248,2.248,0,0,0-.446-.666,2.427,2.427,0,0,0-3.313-.138,2.246,2.246,0,0,0-.114,3.214,2.326,2.326,0,0,0,.646.486l-1.833,1.665a.574.574,0,0,0-.091.1.765.765,0,0,0-.163.392.474.474,0,0,0,0,.121.762.762,0,0,0,.2.409l1.922,2.055a.8.8,0,0,0,1.36-.332A1.49,1.49,0,0,1,398,672.819a.31.31,0,0,1,.1,0,1.519,1.519,0,0,1,1.214,1.046,1.313,1.313,0,0,1-.4,1.327,1.375,1.375,0,0,1-.682.326.807.807,0,0,0-.63.522.759.759,0,0,0,.166.774l.028.031a.5.5,0,0,0,.133.1l1.842,1.92a.8.8,0,0,0,.49.242.4.4,0,0,0,.06,0,.51.51,0,0,0,.069,0,.787.787,0,0,0,.261-.084.8.8,0,0,0,.165-.111l2.012-1.785a.49.49,0,0,0,.067-.072.774.774,0,0,0,.12-.687.763.763,0,0,0-.473-.5,1.345,1.345,0,0,1-.524-.348,1.3,1.3,0,0,1-.354-.99,1.312,1.312,0,0,1,.492-.936l.036-.033a1.427,1.427,0,0,1,1-.4,1.377,1.377,0,0,1,.986.425,1.307,1.307,0,0,1,.313.537.768.768,0,0,0,.47.5.832.832,0,0,0,.713-.063.489.489,0,0,0,.08-.058l1.991-1.808a.778.778,0,0,0,.232-.391.475.475,0,0,0,.013-.129.767.767,0,0,0-.208-.5Zm-.63,3.827a2.277,2.277,0,0,0-.431-.634,2.409,2.409,0,0,0-3.4-.058,2.267,2.267,0,0,0-.829,1.6,2.243,2.243,0,0,0,.612,1.707,2.347,2.347,0,0,0,.615.47l-1.567,1.39-1.582-1.65a2.362,2.362,0,0,0,.834-.479,2.26,2.26,0,0,0,.7-2.283,2.5,2.5,0,0,0-1.948-1.745,1.32,1.32,0,0,0-.46-.021,2.512,2.512,0,0,0-2.055,1.436l-1.534-1.638,1.82-1.653a.886.886,0,0,0,.245-.877.771.771,0,0,0-.467-.475,1.343,1.343,0,0,1-.525-.347,1.3,1.3,0,0,1,.052-1.853,1.408,1.408,0,0,1,1.915.087,1.306,1.306,0,0,1,.312.536.768.768,0,0,0,.45.492.823.823,0,0,0,.649-.008.8.8,0,0,0,.266-.155l1.843-1.635,1.554,1.621a2.468,2.468,0,0,0-1.637,1.878,1.219,1.219,0,0,0-.017.448,2.469,2.469,0,0,0,1.629,2.03,2.408,2.408,0,0,0,2.395-.49,2.289,2.289,0,0,0,.556-.771l1.562,1.668Z" fill="#fff" stroke="#fff" stroke-miterlimit="10" stroke-width="0.779"/>
          <path id="Path_86" data-name="Path 86" d="M380.965,691.156a.794.794,0,0,0,.8.775h0l9.233-.053a.565.565,0,0,0,.071-.009.827.827,0,0,0,.315.062l2.864-.017a.473.473,0,0,0,.1-.01.806.806,0,0,0,.56-.429.749.749,0,0,0-.009-.684,1.424,1.424,0,0,1,.177-1.548.282.282,0,0,1,.07-.069,1.737,1.737,0,0,1,.976-.324,1.359,1.359,0,0,1,1.372,1.329,1.279,1.279,0,0,1-.144.6.743.743,0,0,0,0,.678.81.81,0,0,0,.567.425.469.469,0,0,0,.1.009l2.72-.016a.8.8,0,0,0,.568-.232.764.764,0,0,0,.231-.553l-.017-2.768a.783.783,0,0,0-.8-.774.832.832,0,0,0-.442.127,1.394,1.394,0,0,1-.739.21,1.377,1.377,0,0,1-1.214-.711,1.461,1.461,0,0,1,.165-1.566.276.276,0,0,1,.069-.068,1.744,1.744,0,0,1,.98-.326,1.393,1.393,0,0,1,.728.2.844.844,0,0,0,1-.105.755.755,0,0,0,.228-.547l-.017-2.779a.8.8,0,0,0-.806-.776l-2.442.014a2.221,2.221,0,0,0,.127-.759A2.341,2.341,0,0,0,396,678.178a2.758,2.758,0,0,0-1.528.487,2.334,2.334,0,0,0,.2-.307,2.4,2.4,0,0,0-.245-2.56,1.252,1.252,0,0,0-.327-.316,2.642,2.642,0,0,0-2.321-.353l-.014-2.378a.8.8,0,0,0-.807-.777l-2.449.015a2.414,2.414,0,0,0-.383-2.274,1.26,1.26,0,0,0-.326-.313,2.771,2.771,0,0,0-1.519-.48h0a2.383,2.383,0,0,0-1.678.679,2.251,2.251,0,0,0-.544,2.414l-2.449.014a.809.809,0,0,0-.566.232.763.763,0,0,0-.231.553l.017,2.788a.542.542,0,0,0,.01.1.8.8,0,0,0,1.143.537,1.566,1.566,0,0,1,1.591.172.291.291,0,0,1,.07.068,1.459,1.459,0,0,1,.18,1.565,1.392,1.392,0,0,1-1.831.581.8.8,0,0,0-1.13.552.49.49,0,0,0-.009.1l.016,2.649a.457.457,0,0,0,.051.2c0,.012,0,.023,0,.035l.014,2.278a2.59,2.59,0,0,0-2.336.373,1.244,1.244,0,0,0-.321.317,2.4,2.4,0,0,0-.216,2.566,2.374,2.374,0,0,0,2.1,1.22,2.45,2.45,0,0,0,.8-.141Zm13.78-9.316a.752.752,0,0,0,.028-.755,1.425,1.425,0,0,1,.178-1.547.294.294,0,0,1,.069-.069,1.737,1.737,0,0,1,.977-.324,1.36,1.36,0,0,1,1.373,1.328,1.3,1.3,0,0,1-.144.6.743.743,0,0,0,.035.746.808.808,0,0,0,.691.373l2.54-.015.014,2.27a2.618,2.618,0,0,0-2.51.3,1.231,1.231,0,0,0-.325.32,2.4,2.4,0,0,0-.221,2.562,2.376,2.376,0,0,0,2.105,1.225,2.41,2.41,0,0,0,.976-.212l.013,2.27-2.178.012a2.244,2.244,0,0,0,.125-.75,2.34,2.34,0,0,0-2.365-2.289,2.768,2.768,0,0,0-1.542.5,1.274,1.274,0,0,0-.324.318,2.42,2.42,0,0,0-.366,2.252l-2.319.012-.016-2.482a.793.793,0,0,0-.8-.779.8.8,0,0,0-.365.088,1.395,1.395,0,0,1-1.852-.558,1.458,1.458,0,0,1,.163-1.563.259.259,0,0,1,.068-.068,1.57,1.57,0,0,1,1.6-.187.826.826,0,0,0,.929-.145.764.764,0,0,0,.233-.555l-.015-2.483,2.542-.015A.8.8,0,0,0,394.745,681.84Zm-.978-.588-1.951.011-.011-1.786a2.432,2.432,0,0,0,.779.124,1.151,1.151,0,1,1,1.184,1.652Zm-11.154-1.524a2.369,2.369,0,0,0,2.086-1.243,2.4,2.4,0,0,0-.245-2.561,1.286,1.286,0,0,0-.327-.316,2.638,2.638,0,0,0-2.312-.356l-.014-2.258,2.55-.015a.809.809,0,0,0,.687-.383.746.746,0,0,0,.022-.752,1.291,1.291,0,0,1-.159-.612,1.311,1.311,0,0,1,.4-.951,1.385,1.385,0,0,1,.975-.393h0a1.741,1.741,0,0,1,.961.312.277.277,0,0,1,.07.068,1.46,1.46,0,0,1,.19,1.56.751.751,0,0,0,.032.756.8.8,0,0,0,.689.373l2.551-.015.015,2.474a.793.793,0,0,0,.8.777.821.821,0,0,0,.362-.085,1.561,1.561,0,0,1,1.589.172.266.266,0,0,1,.07.068,1.456,1.456,0,0,1,.18,1.565,1.395,1.395,0,0,1-1.825.584.822.822,0,0,0-.919.148.766.766,0,0,0-.234.557l.013,2.255a.823.823,0,0,0-.133.141h0a.9.9,0,0,0-.049.076l-2.44.015a.3.3,0,0,1-.263-.147.3.3,0,0,1,.013-.31,1.906,1.906,0,0,0-.14-2.2.8.8,0,0,0-.2-.187,2.237,2.237,0,0,0-1.246-.4,1.882,1.882,0,0,0-1.326.537,1.778,1.778,0,0,0-.248,2.262.3.3,0,0,1-.249.466l-2.692.015-.012-2.12A2.407,2.407,0,0,0,382.613,679.728Zm-2.467,8.216a1.4,1.4,0,0,1-1.221-.708,1.46,1.46,0,0,1,.163-1.569.243.243,0,0,1,.066-.066,1.567,1.567,0,0,1,1.6-.186.809.809,0,0,0,.78-.031.772.772,0,0,0,.38-.67l-.013-2.021,2.646-.015a1.3,1.3,0,0,0,1.13-.658,1.247,1.247,0,0,0-.052-1.3.831.831,0,0,1,.118-1.059,1.006,1.006,0,0,1,1.274-.042.973.973,0,0,1,.09,1.095,1.243,1.243,0,0,0-.043,1.293,1.3,1.3,0,0,0,1.135.647l2.328-.013.011,1.793a2.64,2.64,0,0,0-2.336.373,1.258,1.258,0,0,0-.321.317,2.407,2.407,0,0,0-.219,2.56,2.378,2.378,0,0,0,2.1,1.224,2.428,2.428,0,0,0,.8-.14l.013,2.073a.586.586,0,0,0-.054.071l-8.57.049-.016-2.483a.775.775,0,0,0-.393-.668.8.8,0,0,0-.772-.022A1.386,1.386,0,0,1,380.147,687.944Z" fill="#fff" stroke="#fff" stroke-miterlimit="10" stroke-width="0.779"/>
        </g>
      </g>
      <path id="Color_Overlay" data-name="Color Overlay" d="M90.695,1710.554a.645.645,0,0,1-.071.009l-9.233.053h0a.8.8,0,0,1-.8-.775l-.014-2.386a2.474,2.474,0,0,1-.8.141,2.375,2.375,0,0,1-2.1-1.22,2.4,2.4,0,0,1,.217-2.565,1.236,1.236,0,0,1,.32-.318,2.593,2.593,0,0,1,2.336-.374l-.014-2.277c0-.012,0-.023,0-.035a.458.458,0,0,1-.051-.2l-.015-2.65a.488.488,0,0,1,.009-.1.8.8,0,0,1,1.13-.553,1.392,1.392,0,0,0,1.831-.58,1.461,1.461,0,0,0-.18-1.565.3.3,0,0,0-.07-.068,1.569,1.569,0,0,0-1.591-.173.79.79,0,0,1-.361.086.8.8,0,0,1-.781-.623.553.553,0,0,1-.011-.094l-.016-2.79a.758.758,0,0,1,.231-.552.807.807,0,0,1,.565-.232l2.45-.014a2.249,2.249,0,0,1,.544-2.414,2.382,2.382,0,0,1,1.679-.68h0a2.773,2.773,0,0,1,1.519.482,1.24,1.24,0,0,1,.326.312,2.414,2.414,0,0,1,.383,2.274l2.449-.015a.8.8,0,0,1,.807.777l.014,2.379a2.641,2.641,0,0,1,2.32.353,1.227,1.227,0,0,1,.327.316,2.4,2.4,0,0,1,.245,2.561,2.28,2.28,0,0,1-.2.307,2.761,2.761,0,0,1,1.528-.487,2.34,2.34,0,0,1,2.364,2.289,2.205,2.205,0,0,1-.127.759l2.443-.013a.8.8,0,0,1,.806.776l.017,2.779a.759.759,0,0,1-.228.547.845.845,0,0,1-1,.105,1.387,1.387,0,0,0-.728-.2,1.749,1.749,0,0,0-.98.326.278.278,0,0,0-.069.068,1.462,1.462,0,0,0-.165,1.567,1.376,1.376,0,0,0,1.213.711,1.4,1.4,0,0,0,.739-.211.833.833,0,0,1,.442-.127.784.784,0,0,1,.8.774l.016,2.767a.76.76,0,0,1-.231.553.8.8,0,0,1-.568.232l-2.72.016a.449.449,0,0,1-.1-.009.811.811,0,0,1-.567-.425.746.746,0,0,1,0-.679,1.273,1.273,0,0,0,.144-.6,1.358,1.358,0,0,0-1.372-1.329,1.736,1.736,0,0,0-.976.324.286.286,0,0,0-.07.069,1.425,1.425,0,0,0-.177,1.548.749.749,0,0,1,.01.684.808.808,0,0,1-.561.428.448.448,0,0,1-.1.01l-2.865.017A.834.834,0,0,1,90.695,1710.554Zm.485-3.388.015,2.481,2.319-.012a2.418,2.418,0,0,1,.366-2.253,1.279,1.279,0,0,1,.324-.318,2.77,2.77,0,0,1,1.542-.5,2.34,2.34,0,0,1,2.365,2.289,2.239,2.239,0,0,1-.125.751l2.178-.013-.014-2.27a2.41,2.41,0,0,1-.976.212,2.374,2.374,0,0,1-2.105-1.226,2.4,2.4,0,0,1,.22-2.561,1.248,1.248,0,0,1,.325-.319,2.616,2.616,0,0,1,2.51-.3l-.013-2.271-2.541.015a.809.809,0,0,1-.691-.373.743.743,0,0,1-.034-.746,1.3,1.3,0,0,0,.143-.6,1.359,1.359,0,0,0-1.372-1.328,1.736,1.736,0,0,0-.977.324.3.3,0,0,0-.069.069,1.424,1.424,0,0,0-.177,1.547.751.751,0,0,1-.029.755.8.8,0,0,1-.68.375l-2.542.015.015,2.483a.764.764,0,0,1-.232.555.825.825,0,0,1-.929.145,1.57,1.57,0,0,0-1.6.187.26.26,0,0,0-.068.068,1.459,1.459,0,0,0-.163,1.563,1.393,1.393,0,0,0,1.851.557.806.806,0,0,1,.365-.088A.794.794,0,0,1,91.18,1707.167Zm-10.012-.67a.775.775,0,0,1,.393.669l.015,2.482,8.571-.049a.681.681,0,0,1,.054-.071l-.013-2.073a2.426,2.426,0,0,1-.8.141,2.377,2.377,0,0,1-2.1-1.225,2.408,2.408,0,0,1,.218-2.56,1.279,1.279,0,0,1,.321-.317,2.638,2.638,0,0,1,2.336-.373l-.011-1.793-2.327.013a1.3,1.3,0,0,1-1.136-.646,1.245,1.245,0,0,1,.042-1.293.971.971,0,0,0-.09-1.094,1.006,1.006,0,0,0-1.274.042.83.83,0,0,0-.117,1.058,1.25,1.25,0,0,1,.052,1.3,1.306,1.306,0,0,1-1.13.658l-2.646.015.013,2.021a.771.771,0,0,1-.38.67.806.806,0,0,1-.779.031,1.568,1.568,0,0,0-1.6.186.257.257,0,0,0-.067.066,1.46,1.46,0,0,0-.163,1.569,1.394,1.394,0,0,0,1.85.554.794.794,0,0,1,.365-.089A.813.813,0,0,1,81.167,1706.5Zm.306-6.085,2.692-.015a.3.3,0,0,0,.248-.466,1.778,1.778,0,0,1,.247-2.263,1.88,1.88,0,0,1,1.327-.537,2.242,2.242,0,0,1,1.246.4.8.8,0,0,1,.2.186,1.905,1.905,0,0,1,.14,2.2.3.3,0,0,0-.013.311.3.3,0,0,0,.263.147l2.44-.015c.015-.025.031-.051.049-.076h0a.8.8,0,0,1,.134-.141l-.014-2.255a.767.767,0,0,1,.233-.557.823.823,0,0,1,.92-.148,1.4,1.4,0,0,0,1.825-.584,1.457,1.457,0,0,0-.18-1.565.3.3,0,0,0-.07-.068,1.562,1.562,0,0,0-1.589-.172.824.824,0,0,1-.363.086.794.794,0,0,1-.8-.778l-.014-2.473-2.551.015a.8.8,0,0,1-.688-.373.749.749,0,0,1-.032-.756,1.458,1.458,0,0,0-.191-1.56.266.266,0,0,0-.07-.068,1.738,1.738,0,0,0-.961-.312h0a1.382,1.382,0,0,0-.975.393,1.313,1.313,0,0,0-.4.951,1.292,1.292,0,0,0,.159.612.748.748,0,0,1-.022.752.811.811,0,0,1-.688.383l-2.55.014.013,2.257a2.642,2.642,0,0,1,2.312.356,1.268,1.268,0,0,1,.327.316,2.4,2.4,0,0,1,.245,2.561,2.369,2.369,0,0,1-2.085,1.243,2.422,2.422,0,0,1-.771-.121Zm9.962-.464,1.951-.011a2.4,2.4,0,0,1,.32-2.189,2.4,2.4,0,0,1-1.5.537,2.446,2.446,0,0,1-.779-.123Zm8.442-2.15a.8.8,0,0,1-.49-.242l-1.842-1.921a.5.5,0,0,1-.133-.1l-.028-.031a.759.759,0,0,1-.166-.774.81.81,0,0,1,.631-.522,1.379,1.379,0,0,0,.682-.326,1.314,1.314,0,0,0,.4-1.327,1.519,1.519,0,0,0-1.213-1.047.345.345,0,0,0-.1,0,1.489,1.489,0,0,0-1.338,1.039.8.8,0,0,1-1.36.332L93,1690.821a.773.773,0,0,1-.2-.41.493.493,0,0,1,0-.121.766.766,0,0,1,.163-.392.58.58,0,0,1,.09-.1l1.833-1.665a2.341,2.341,0,0,1-.646-.487,2.246,2.246,0,0,1,.113-3.214,2.428,2.428,0,0,1,3.313.139,2.243,2.243,0,0,1,.445.666l1.857-1.647a.814.814,0,0,1,.523-.2.562.562,0,0,1,.123.011.824.824,0,0,1,.4.227l1.949,2.033a.756.756,0,0,1,.174.766.8.8,0,0,1-.625.526,1.478,1.478,0,0,0-1.171,1.218.251.251,0,0,0,0,.1,1.494,1.494,0,0,0,.973,1.26,1.4,1.4,0,0,0,1.39-.285,1.324,1.324,0,0,0,.39-.635.8.8,0,0,1,.585-.57.811.811,0,0,1,.779.224l.03.031a.5.5,0,0,1,.093.137l1.817,1.943a.765.765,0,0,1,.208.5.45.45,0,0,1-.014.13.775.775,0,0,1-.231.391l-1.991,1.808a.46.46,0,0,1-.08.058.829.829,0,0,1-.714.063.764.764,0,0,1-.469-.5,1.321,1.321,0,0,0-.313-.537,1.376,1.376,0,0,0-.986-.425,1.428,1.428,0,0,0-1,.4l-.037.033a1.311,1.311,0,0,0-.138,1.927,1.347,1.347,0,0,0,.524.347.764.764,0,0,1,.473.5.774.774,0,0,1-.12.688.517.517,0,0,1-.067.072l-2.012,1.785a.8.8,0,0,1-.166.111.777.777,0,0,1-.261.085.437.437,0,0,1-.068,0A.345.345,0,0,1,99.878,1697.8Zm-1.93-7.229a2.5,2.5,0,0,1,1.948,1.744,2.26,2.26,0,0,1-.7,2.283,2.35,2.35,0,0,1-.834.478l1.582,1.651,1.567-1.391a2.379,2.379,0,0,1-.615-.47,2.26,2.26,0,0,1,.218-3.3,2.407,2.407,0,0,1,3.4.058,2.278,2.278,0,0,1,.431.634l1.55-1.408-1.562-1.668a2.306,2.306,0,0,1-.556.77,2.408,2.408,0,0,1-2.395.49,2.471,2.471,0,0,1-1.629-2.03,1.244,1.244,0,0,1,.016-.447,2.467,2.467,0,0,1,1.638-1.878l-1.554-1.621-1.843,1.634a.936.936,0,0,1-.914.163.772.772,0,0,1-.45-.492,1.3,1.3,0,0,0-.312-.536,1.408,1.408,0,0,0-1.915-.086,1.3,1.3,0,0,0-.052,1.853,1.351,1.351,0,0,0,.525.347.77.77,0,0,1,.467.476.886.886,0,0,1-.244.877l-1.82,1.653,1.534,1.639a2.513,2.513,0,0,1,2.055-1.436,1.288,1.288,0,0,1,.461.021Z" fill="#fff"/>
    </g>
  </g>
</svg>
