<svg xmlns="http://www.w3.org/2000/svg" width="51.58" height="51.58" viewBox="0 0 51.58 51.58">
  <g id="Jap-lang" transform="translate(-66.71 -1699.71)">
    <circle id="Ellipse_1" data-name="Ellipse 1" cx="25.79" cy="25.79" r="25.79" transform="translate(66.71 1699.71)" fill="#df20c6"/>
    <g id="Vector_Smart_Object" data-name="Vector Smart Object" transform="translate(55.935 1520.056)">
      <g id="Group_19" data-name="Group 19">
        <path id="Path_53" data-name="Path 53" d="M47.134,196.98l-2.19-2.187-.462-.462-2.19-2.187a1.067,1.067,0,0,0-1.636.156l-2.492,3.679,2.334,2.331.462.462,2.334,2.331,3.684-2.489A1.064,1.064,0,0,0,47.134,196.98Z" fill="#fff"/>
        <path id="Path_54" data-name="Path 54" d="M41.707,202.755l-5.339-5.332h0l-6.32.622h0l-7.73,16.315h0l.939.937h0l5.413-5.406h0a1.739,1.739,0,1,1,.513.512h0L23.77,215.81h0l.939.938h0l16.336-7.72h0l.662-6.272Z" fill="#fff"/>
        <path id="Path_55" data-name="Path 55" d="M49.872,217.756H23.79a.816.816,0,1,0,0,.966H49.872a.483.483,0,1,0,0-.966Z" fill="#fff"/>
      </g>
    </g>
  </g>
</svg>
