<svg xmlns="http://www.w3.org/2000/svg" width="51.58" height="51.58" viewBox="0 0 51.58 51.58">
  <g id="skill" transform="translate(-47 -1446)">
    <circle id="Ellipse_1" data-name="Ellipse 1" cx="25.79" cy="25.79" r="25.79" transform="translate(47 1446)" fill="#e1251c"/>
    <g id="Vector_Smart_Object" data-name="Vector Smart Object" transform="translate(-1194 -72)">
      <g id="Vector_Smart_Object-2" data-name="Vector Smart Object" transform="translate(977.864 1357.042)">
        <path id="Path_63" data-name="Path 63" d="M305.547,191.783l-1.236-.24a8.89,8.89,0,0,0-.413-2.026l1.042-.721a.748.748,0,0,0,.192-1.026l-1.832-2.746a.722.722,0,0,0-.464-.309.711.711,0,0,0-.543.114l-1.042.722a8.495,8.495,0,0,0-1.7-1.137l.236-1.259a.737.737,0,0,0-.576-.863l-3.2-.623a.715.715,0,0,0-.543.115.742.742,0,0,0-.3.473l-.236,1.259a8.408,8.408,0,0,0-1.988.42l-.708-1.061a.726.726,0,0,0-.463-.31.716.716,0,0,0-.543.114l-2.7,1.866a.751.751,0,0,0-.192,1.027l.708,1.061a8.749,8.749,0,0,0-1.116,1.727l-1.237-.24a.717.717,0,0,0-.542.114.741.741,0,0,0-.3.473l-.611,3.261a.738.738,0,0,0,.577.863l1.235.24a8.881,8.881,0,0,0,.414,2.025l-1.042.722a.747.747,0,0,0-.192,1.026l1.832,2.746a.721.721,0,0,0,.464.31.711.711,0,0,0,.542-.114l1.043-.722a8.471,8.471,0,0,0,1.7,1.137l-.236,1.259a.738.738,0,0,0,.576.863l3.2.622a.693.693,0,0,0,.136.014.729.729,0,0,0,.712-.6l.236-1.259a8.411,8.411,0,0,0,1.988-.421l.708,1.062a.722.722,0,0,0,.464.309.712.712,0,0,0,.543-.114l2.7-1.866a.746.746,0,0,0,.192-1.025l-.708-1.062a8.749,8.749,0,0,0,1.117-1.728l1.236.24a.725.725,0,0,0,.847-.587l.611-3.26a.75.75,0,0,0-.112-.554A.72.72,0,0,0,305.547,191.783Zm-2.627,2.726-.918-.178a.61.61,0,0,0-.682.374,6.171,6.171,0,0,1-1.241,1.922.635.635,0,0,0-.067.786l.527.788-1.269.878-.526-.788a.609.609,0,0,0-.742-.226,5.959,5.959,0,0,1-2.212.468.617.617,0,0,0-.593.508l-.174.934-1.507-.293.175-.934a.629.629,0,0,0-.368-.695,6.05,6.05,0,0,1-1.888-1.264.6.6,0,0,0-.772-.067l-.774.535-.863-1.292.774-.535a.633.633,0,0,0,.223-.756,6.265,6.265,0,0,1-.46-2.253.622.622,0,0,0-.5-.6l-.917-.178.288-1.535.917.178a.613.613,0,0,0,.682-.374,6.177,6.177,0,0,1,1.242-1.923.636.636,0,0,0,.066-.786l-.526-.788,1.268-.878.526.787a.609.609,0,0,0,.743.227,5.953,5.953,0,0,1,2.212-.468.618.618,0,0,0,.593-.508l.175-.935,1.506.293-.175.935a.626.626,0,0,0,.368.694,6.055,6.055,0,0,1,1.887,1.265.606.606,0,0,0,.772.067l.773-.535.863,1.292-.774.535a.633.633,0,0,0-.223.756,6.266,6.266,0,0,1,.46,2.253.624.624,0,0,0,.5.6l.917.178Z" fill="#fff"/>
        <path id="Path_64" data-name="Path 64" d="M296.654,187.095a5.1,5.1,0,0,0-3.9.823,5.278,5.278,0,0,0-2.188,3.394,5.35,5.35,0,0,0,.808,3.977,5.167,5.167,0,0,0,3.333,2.229h0a5.067,5.067,0,0,0,.979.1,5.243,5.243,0,0,0,5.114-4.312A5.307,5.307,0,0,0,296.654,187.095Zm2.716,5.929a3.812,3.812,0,0,1-1.579,2.451,3.684,3.684,0,0,1-2.818.594h0a3.736,3.736,0,0,1-2.406-1.609,3.864,3.864,0,0,1-.583-2.87,3.807,3.807,0,0,1,1.58-2.45,3.676,3.676,0,0,1,2.817-.594A3.829,3.829,0,0,1,299.371,193.023Z" fill="#fff"/>
        <path id="Path_65" data-name="Path 65" d="M279.135,188.539l.134.953a.553.553,0,0,0,.212.365.535.535,0,0,0,.4.105l2.425-.355a.553.553,0,0,0,.461-.628l-.134-.953a6.451,6.451,0,0,0,1.312-.794l.758.578a.537.537,0,0,0,.762-.112l1.468-2a.562.562,0,0,0-.109-.777l-.758-.577a6.664,6.664,0,0,0,.379-1.507l.936-.137a.549.549,0,0,0,.359-.216.564.564,0,0,0,.1-.412l-.348-2.47a.547.547,0,0,0-.617-.47l-.936.137a6.63,6.63,0,0,0-.779-1.337l.568-.772a.562.562,0,0,0,.1-.411.553.553,0,0,0-.212-.365l-1.961-1.5a.537.537,0,0,0-.763.112l-.568.772a6.339,6.339,0,0,0-1.479-.386l-.134-.954a.546.546,0,0,0-.617-.47l-2.425.355a.544.544,0,0,0-.358.217.562.562,0,0,0-.1.411l.134.953a6.414,6.414,0,0,0-1.312.794l-.759-.578a.537.537,0,0,0-.762.112l-1.469,2a.563.563,0,0,0,.11.777l.758.578a6.645,6.645,0,0,0-.379,1.506l-.936.137a.546.546,0,0,0-.359.217.562.562,0,0,0-.1.411l.347,2.471a.548.548,0,0,0,.618.47l.936-.138a6.544,6.544,0,0,0,.779,1.337l-.567.772a.559.559,0,0,0,.109.777l1.961,1.5a.538.538,0,0,0,.763-.111l.568-.772A6.346,6.346,0,0,0,279.135,188.539Zm-1.76-1.987-.441.6-.966-.737.441-.6a.5.5,0,0,0-.024-.62,4.88,4.88,0,0,1-.907-1.555.483.483,0,0,0-.523-.32l-.727.107-.171-1.216.727-.106a.488.488,0,0,0,.413-.456,4.915,4.915,0,0,1,.441-1.753.5.5,0,0,0-.148-.6l-.589-.449.723-.984.589.449a.476.476,0,0,0,.609-.025,4.725,4.725,0,0,1,1.527-.924.493.493,0,0,0,.313-.532l-.1-.74,1.195-.175.1.74a.487.487,0,0,0,.448.421,4.7,4.7,0,0,1,1.721.449.476.476,0,0,0,.591-.151l.441-.6.966.736-.441.6a.5.5,0,0,0,.024.62,4.868,4.868,0,0,1,.907,1.556.482.482,0,0,0,.523.319l.727-.106.171,1.216-.727.106a.488.488,0,0,0-.413.456,4.931,4.931,0,0,1-.441,1.753.5.5,0,0,0,.148.6l.589.449-.723.984-.589-.45a.476.476,0,0,0-.608.025,4.758,4.758,0,0,1-1.528.925.492.492,0,0,0-.313.532l.1.74-1.194.175-.1-.74a.488.488,0,0,0-.448-.422,4.668,4.668,0,0,1-1.721-.449.479.479,0,0,0-.591.151Z" fill="#fff"/>
        <path id="Path_66" data-name="Path 66" d="M280.552,185.911a3.982,3.982,0,0,0,3.319-4.514,3.934,3.934,0,0,0-4.433-3.381,3.987,3.987,0,1,0,1.114,7.9Zm-3.354-3.539a2.873,2.873,0,0,1,2.4-3.257,2.706,2.706,0,0,1,.4-.03,2.875,2.875,0,1,1-2.8,3.287Z" fill="#fff"/>
      </g>
    </g>
  </g>
</svg>
