<svg xmlns="http://www.w3.org/2000/svg" width="51.58" height="51.58" viewBox="0 0 51.58 51.58">
  <g id="target-segment" transform="translate(-66.71 -1450.71)">
    <circle id="Ellipse_1" data-name="Ellipse 1" cx="25.79" cy="25.79" r="25.79" transform="translate(66.71 1450.71)" fill="#fc9721"/>
    <g id="Vector_Smart_Object" data-name="Vector Smart Object" transform="translate(80.463 1463.482)">
      <g id="Vector_Smart_Object-2" data-name="Vector Smart Object" transform="translate(0 0)">
        <g id="Group_27" data-name="Group 27">
          <path id="Path_79" data-name="Path 79" d="M911.927,167.489a4.752,4.752,0,0,0,3.325,8.1h0a4.643,4.643,0,0,0,3.323-1.393,4.737,4.737,0,0,0,1.066-1.658h4.389a4.709,4.709,0,0,0,4.388,3.051h0a4.644,4.644,0,0,0,3.323-1.393,4.752,4.752,0,0,0-3.324-8.1,4.646,4.646,0,0,0-2.144.524,6.263,6.263,0,0,0-.991-1.187.634.634,0,0,0-.819-.036c-.025.022-2.615,1.966-5.085.187l-1.3-2.034a4.684,4.684,0,0,0,3.639,1.742h0a4.646,4.646,0,0,0,3.326-1.393,4.755,4.755,0,0,0-3.328-8.1,4.653,4.653,0,0,0-3.327,1.392,4.757,4.757,0,0,0-.872,5.491l-1.569-2.449a1.6,1.6,0,0,0-2.216-.479,1.626,1.626,0,0,0-.475,2.235l2.67,4.167a4.587,4.587,0,0,0-4,1.338Zm7.361-9.393a3.4,3.4,0,0,1,2.426-1.016,3.467,3.467,0,0,1,2.426,5.911,3.39,3.39,0,0,1-2.426,1.016,3.468,3.468,0,0,1-2.426-5.911Zm6.7,10.3a3.4,3.4,0,0,1,2.43-1.017,3.471,3.471,0,0,1,2.428,5.918,3.391,3.391,0,0,1-2.427,1.017h0a3.472,3.472,0,0,1-2.43-5.918Zm-11.862-6.974a.569.569,0,1,1,.953-.622l3.068,4.788h0l.789,1.232.05.049a5.494,5.494,0,0,0,.665.35,5.151,5.151,0,0,0,.576.21,5.934,5.934,0,0,0,4.534-.693,5.073,5.073,0,0,1,.469.634c-.045.042-.092.081-.136.125a4.736,4.736,0,0,0-1.378,3.355c0,.137.009.272.02.407h-3.8c.012-.136.02-.273.02-.411a4.76,4.76,0,0,0-2.463-4.17l-.067-.1Zm4.563,9.423a3.46,3.46,0,0,1-1.007,2.451,3.4,3.4,0,0,1-2.428,1.017h0a3.471,3.471,0,0,1-2.429-5.918,3.4,3.4,0,0,1,2.429-1.017A3.456,3.456,0,0,1,918.689,170.841Z" transform="translate(-909.298 -155.795)" fill="#fff" stroke="#fff" stroke-miterlimit="10" stroke-width="0.487"/>
          <path id="Path_80" data-name="Path 80" d="M909.48,182.641a.632.632,0,0,0,.45.19l10.643,0a.636.636,0,0,0,.633-.618c.006-.169.107-4.171-2.388-6.477a.631.631,0,0,0-.811-.036c-.114.086-2.793,2.091-5.33.007a.627.627,0,0,0-.814.012,8.976,8.976,0,0,0-2.563,6.467A.637.637,0,0,0,909.48,182.641Zm2.869-5.6a5.53,5.53,0,0,0,5.958-.014,7.968,7.968,0,0,1,1.614,4.519l-9.327,0A7.937,7.937,0,0,1,912.349,177.046Z" transform="translate(-909.298 -155.795)" fill="#fff" stroke="#fff" stroke-miterlimit="10" stroke-width="0.487"/>
          <path id="Path_81" data-name="Path 81" d="M931.172,175.7c-.114.086-2.792,2.091-5.33.007a.627.627,0,0,0-.814.012,8.974,8.974,0,0,0-2.564,6.467.642.642,0,0,0,.182.457.631.631,0,0,0,.451.19l10.643,0a.635.635,0,0,0,.632-.618c.006-.169.107-4.171-2.388-6.477A.631.631,0,0,0,931.172,175.7Zm1.915,5.853-9.327,0a7.938,7.938,0,0,1,1.755-4.507,5.531,5.531,0,0,0,5.958-.014A7.968,7.968,0,0,1,933.086,181.552Z" transform="translate(-909.298 -155.795)" fill="#fff" stroke="#fff" stroke-miterlimit="10" stroke-width="0.487"/>
        </g>
      </g>
      <path id="Color_Overlay" data-name="Color Overlay" d="M13.348,26.847a.642.642,0,0,1-.183-.457,8.978,8.978,0,0,1,2.564-6.467.628.628,0,0,1,.814-.012c2.538,2.084,5.216.079,5.33-.006a.629.629,0,0,1,.811.036c2.5,2.306,2.395,6.307,2.389,6.476a.635.635,0,0,1-.632.618l-10.642,0A.63.63,0,0,1,13.348,26.847Zm1.114-1.088,9.327,0a7.967,7.967,0,0,0-1.615-4.519,5.531,5.531,0,0,1-5.958.014A7.933,7.933,0,0,0,14.462,25.759ZM.182,26.847A.641.641,0,0,1,0,26.39a8.979,8.979,0,0,1,2.563-6.467.628.628,0,0,1,.814-.012C5.915,22,8.594,19.99,8.708,19.9a.631.631,0,0,1,.812.036c2.495,2.306,2.394,6.307,2.389,6.476a.637.637,0,0,1-.634.618l-10.642,0A.632.632,0,0,1,.182,26.847ZM1.3,25.759l9.327,0a7.972,7.972,0,0,0-1.614-4.519,5.531,5.531,0,0,1-5.958.014A7.939,7.939,0,0,0,1.3,25.759Zm17.825-5.966a4.708,4.708,0,0,1-4.388-3.052H10.344A4.725,4.725,0,0,1,9.278,18.4a4.642,4.642,0,0,1-3.323,1.393h0a4.752,4.752,0,0,1-3.325-8.1,4.586,4.586,0,0,1,4-1.337L3.959,6.19a1.625,1.625,0,0,1,.474-2.235,1.6,1.6,0,0,1,2.216.479l1.57,2.449A4.758,4.758,0,0,1,9.09,1.392,4.656,4.656,0,0,1,12.417,0a4.755,4.755,0,0,1,3.327,8.1A4.644,4.644,0,0,1,12.419,9.5h0a4.682,4.682,0,0,1-3.64-1.742l1.3,2.034c2.47,1.779,5.061-.166,5.086-.187a.634.634,0,0,1,.819.037,6.255,6.255,0,0,1,.991,1.186,4.651,4.651,0,0,1,2.144-.524,4.752,4.752,0,0,1,3.324,8.1,4.645,4.645,0,0,1-3.323,1.393Zm-2.43-7.2a3.472,3.472,0,0,0,2.43,5.917h0A3.393,3.393,0,0,0,21.549,17.5a3.472,3.472,0,0,0-2.428-5.918A3.4,3.4,0,0,0,16.691,12.6Zm-13.165,0a3.472,3.472,0,0,0,2.429,5.917h0A3.4,3.4,0,0,0,8.384,17.5a3.472,3.472,0,0,0-2.429-5.918A3.4,3.4,0,0,0,3.525,12.6ZM5,4.83a.568.568,0,0,0-.247.361.574.574,0,0,0,.078.432l3.3,5.149.068.1a4.76,4.76,0,0,1,2.463,4.17c0,.138-.009.275-.021.411h3.8c-.012-.135-.021-.271-.021-.408A4.739,4.739,0,0,1,15.8,11.694c.044-.043.092-.083.136-.125a5.034,5.034,0,0,0-.468-.634,5.934,5.934,0,0,1-4.534.694,5.332,5.332,0,0,1-.576-.21,5.551,5.551,0,0,1-.665-.35l-.05-.049L8.849,9.788,5.781,5a.58.58,0,0,0-.486-.257A.549.549,0,0,0,5,4.83Zm5-2.529a3.468,3.468,0,0,0,2.426,5.91A3.391,3.391,0,0,0,14.844,7.2a3.467,3.467,0,0,0-2.426-5.91A3.394,3.394,0,0,0,9.991,2.3Z" transform="translate(0 0)" fill="#fff"/>
    </g>
  </g>
</svg>
